<svg width="107" height="65" viewBox="0 0 107 65" fill="none" xmlns="http://www.w3.org/2000/svg">
<path d="M44.7565 29.1438C45.4583 28.7347 46.2039 28.3474 46.9577 28.038C47.107 27.2822 47.1571 26.4936 47.1166 25.7255C46.4657 25.1627 46.0089 24.4069 46.0044 23.5134C45.9967 21.9483 47.3193 20.8831 48.6546 20.3569C51.0225 19.4242 54.6163 19.4242 56.9841 20.3569C58.3202 20.8831 59.6427 21.9483 59.6343 23.5134C59.6298 24.4069 59.1731 25.1627 58.5228 25.7255C58.4823 26.4936 58.5318 27.2822 58.681 28.038C59.4349 28.3474 60.1811 28.7347 60.8829 29.1438C63.0745 28.7385 65.6687 29.2924 67.3405 30.7628C70.6616 33.6839 70.3805 39.1444 69.5154 43.0696C67.619 51.6699 61.5358 61.3489 53.1722 64.8521L52.8197 65L52.4666 64.8521C44.103 61.3489 38.0204 51.6699 36.1234 43.0696C35.2582 39.1444 34.9771 33.6839 38.2983 30.7628C39.9701 29.2924 42.565 28.7385 44.7565 29.1438Z" fill="black"/>
<path d="M55.6348 26.0897C53.8942 26.5143 51.7444 26.5143 50.0038 26.0897C50.0205 28.0079 49.5883 29.4565 49.4036 29.9853C49.825 30.3873 50.3357 30.6716 51.0909 31.0113C49.9787 30.9817 49.0595 30.6916 48.5713 30.5024C48.1165 30.6523 47.6295 30.8717 47.187 31.0949C48.4503 31.8012 49.688 32.5904 50.8947 32.5904C47.5067 33.464 42.6681 29.0673 39.383 33.9188C35.8381 39.8129 42.5208 57.2039 52.8193 61.8713C63.1172 57.2039 69.7999 39.8129 66.2556 33.9188C62.9699 29.0673 58.1313 33.464 54.7439 32.5904C55.9507 32.5904 57.1876 31.8012 58.451 31.0949C58.0084 30.8717 57.5221 30.6523 57.0674 30.5024C56.5785 30.6916 55.6593 30.9817 54.5477 31.0113C55.3029 30.6716 55.813 30.3873 56.2343 29.9853C56.0497 29.4565 55.6181 28.0079 55.6348 26.0897Z" fill="#E79E12"/>
<path d="M39.8477 37.6192C43.5303 44.6892 48.7265 44.5188 52.8195 42.2906C54.7248 41.253 56.5382 38.781 58.1997 37.3915C56.2982 38.6304 54.5151 38.8459 52.8195 38.5423C48.5946 37.7871 40.1989 29.7317 39.8477 37.6192Z" fill="#2F9379"/>
<path d="M52.8194 41.2666C48.7264 43.4949 44.2076 43.8274 39.8476 37.6194C39.7813 39.1163 40.0084 40.7051 40.2554 41.8816C40.99 45.3848 42.5312 48.9497 44.4256 51.9781C46.4602 55.2304 49.3343 58.5245 52.8194 60.3057C56.3039 58.5245 59.178 55.2304 61.2126 51.9781C63.107 48.9497 64.6489 45.3848 65.3828 41.8816C65.8099 39.8444 66.1805 36.5741 65.0651 34.6772C64.6727 34.104 64.2256 33.639 63.6602 33.3469C62.1614 33.9702 60.3018 35.6337 58.1996 37.3917C56.5381 38.7811 54.7248 40.2291 52.8194 41.2666Z" fill="#FBC2B7"/>
<path d="M52.8193 60.3057C59.0396 57.4039 64.1129 48.3058 65.485 41.7632C65.9018 39.7749 66.2749 36.5329 65.1885 34.6772C64.6172 33.8454 63.9322 33.2479 62.9036 33.1128C62.0224 32.9976 61.0182 33.215 60.164 33.4235C59.2699 33.6422 58.3455 33.911 57.4135 34.0667C59.688 34.2378 62.9808 32.7776 63.1217 37.4798C63.2818 42.8336 59.4461 55.1423 52.8193 60.3057Z" fill="black"/>
<path d="M49.0869 7.74194C47.8859 8.47203 46.7976 10.1451 48.535 11.1357C46.9822 10.9215 46.6361 8.85027 49.0869 7.74194Z" fill="black"/>
<path d="M48.2821 13.5673C47.8594 14.1971 47.8427 15.1993 48.3901 15.7686C47.6111 15.5215 47.4664 14.053 48.2821 13.5673Z" fill="black"/>
<path d="M52.9759 17.2546C53.0242 16.9369 53.0872 16.6011 52.9238 16.2338C53.1625 16.2859 53.3529 16.9195 52.9759 17.2546Z" fill="black"/>
<path d="M57.9332 13.2451C59.0628 12.3761 58.985 10.3466 57.8496 9.50524C59.5941 10.3357 59.2654 12.8495 57.9332 13.2451Z" fill="black"/>
<path d="M56.0392 5.80835C57.3881 3.9725 55.2828 3.2006 53.4727 3.34983C57.2447 2.88798 57.2389 5.01715 56.0392 5.80835Z" fill="black"/>
<path d="M48.2322 14.4217C48.5275 11.5078 55.5827 12.8914 55.5119 11.7593C55.4791 10.9565 48.88 12.3981 47.9698 10.1962C47.0422 7.95189 53.9167 5.86453 54.2158 4.85912C54.4287 4.1419 51.9946 4.15605 51.655 4.12453C53.3223 3.09596 57.4616 3.45747 55.8419 5.66319C54.8282 7.04361 53.1763 7.75183 51.7785 8.64917C49.7008 9.98392 56.224 8.60478 57.7035 9.70217C58.7411 10.4715 58.7507 12.3061 57.7846 13.0503C56.9355 13.7039 54.7387 14.2731 52.3015 14.3465C51.938 14.3574 50.0771 14.3439 50.1852 14.8887C50.2083 15.3364 52.2461 15.3068 52.7009 16.3335C53.0817 17.1922 51.9457 18.343 53.8408 18.8267C51.9914 18.8679 51.7656 17.9924 51.7116 17.4469C51.5424 15.7372 47.9872 16.8442 48.2322 14.4217Z" fill="black"/>
<path d="M0 27.4958C0.955231 34.4674 4.02291 38.7187 7.58717 40.1737C7.60583 43.4344 10.238 46.1824 13.2182 46.9716C13.8718 48.2768 18.0786 55.7141 27.5177 52.1717C28.8197 52.5062 30.3178 52.5679 32.007 52.2431C38.3514 51.0248 41.2248 42.7577 36.778 37.3653C35.4304 35.7314 33.5367 34.5658 31.3785 34.1503C20.8819 32.1305 10.4451 29.7704 0 27.4958Z" fill="black"/>
<path d="M16.8297 46.8806C17.4904 46.6478 18.1227 46.2831 18.6978 45.7685C12.3566 45.1741 11.0282 42.2376 10.7684 40.7318C12.2195 40.6649 13.6746 40.1689 15.0383 39.2375C7.83642 39.3353 5.0254 34.5263 3.97754 31.5603C12.9008 33.5132 21.8214 35.4899 30.7922 37.2164C35.6179 38.1453 37.455 44.1288 33.9692 47.614C28.8335 52.7503 20.6648 46.2123 24.3372 40.0911C20.5207 41.0734 20.4622 46.5886 23.6412 49.9129C20.075 50.2526 17.9117 48.299 16.8297 46.8806Z" fill="#E9E8E7"/>
<path d="M15.0383 39.2375C7.83642 39.3353 5.0254 34.5263 3.97754 31.5603C12.9008 33.5132 21.8214 35.4899 30.7922 37.2164C33.939 37.8217 35.8141 40.5767 35.7723 43.3865C35.5548 39.653 30.7549 38.0906 30.7549 38.0906L6.50102 33.0475C8.0384 37.8024 15.0383 39.2375 15.0383 39.2375Z" fill="black"/>
<path d="M18.6979 45.7686C12.3567 45.1742 11.0284 42.2384 10.7686 40.7319C12.2191 40.665 13.6748 40.169 15.0385 39.2376C15.0385 39.2376 13.8195 41.0413 12.3786 41.5212C12.3786 41.5212 13.7018 44.9587 18.6979 45.7686Z" fill="#CCCCC9"/>
<path d="M16.8301 46.8806C17.4907 46.6478 18.123 46.2831 18.6981 45.7685C18.608 46.3358 18.1108 46.8414 18.1108 46.8414C19.1985 48.1479 21.0164 48.6187 21.0164 48.6187C18.6633 41.3667 24.3375 40.0911 24.3375 40.0911C20.5211 41.0734 20.4625 46.5886 23.6415 49.9129C20.0759 50.2526 17.912 48.299 16.8301 46.8806Z" fill="#CCCCC9"/>
<path d="M35.7719 43.3866C35.7494 44.886 35.1821 46.4009 33.9689 47.614C28.8332 52.7504 20.6645 46.2124 24.3368 40.0912C23.0053 45.2829 30.6484 52.0036 35.7719 43.3866Z" fill="#CCCCC9"/>
<path d="M106.344 27.4958C105.389 34.4674 102.321 38.7187 98.7571 40.1737C98.7385 43.4344 96.1063 46.1824 93.1261 46.9716C92.4726 48.2768 88.2657 55.7141 78.8266 52.1717C77.5246 52.5062 76.0265 52.5679 74.3373 52.2431C67.9929 51.0248 65.1195 42.7577 69.5663 37.3653C70.9139 35.7314 72.8077 34.5658 74.9658 34.1503C85.4624 32.1305 95.8992 29.7704 106.344 27.4958Z" fill="black"/>
<path d="M89.5141 46.8806C88.8535 46.6478 88.2212 46.2831 87.6461 45.7685C93.9873 45.1741 95.3156 42.2376 95.5755 40.7318C94.1243 40.6649 92.6693 40.1689 91.3056 39.2375C98.5075 39.3353 101.318 34.5263 102.366 31.5603C93.4431 33.5132 84.5225 35.4899 75.5517 37.2164C70.726 38.1453 68.8889 44.1288 72.3747 47.614C77.5104 52.7503 85.6791 46.2123 82.0067 40.0911C85.8232 41.0734 85.8817 46.5886 82.7027 49.9129C86.2689 50.2526 88.4322 48.299 89.5141 46.8806Z" fill="#E9E8E7"/>
<path d="M91.306 39.2375C98.5072 39.3353 101.319 34.5263 102.367 31.5603C93.4429 33.5132 84.5229 35.4899 75.552 37.2164C72.4052 37.8217 70.5302 40.5767 70.572 43.3865C70.7894 39.653 75.5894 38.0906 75.5894 38.0906L99.8426 33.0475C98.3058 37.8024 91.306 39.2375 91.306 39.2375Z" fill="black"/>
<path d="M87.6465 45.7686C93.9877 45.1742 95.316 42.2384 95.5759 40.7319C94.1247 40.665 92.6696 40.169 91.3059 39.2376C91.3059 39.2376 92.5249 41.0413 93.9658 41.5212C93.9658 41.5212 92.642 44.9587 87.6465 45.7686Z" fill="#CCCCC9"/>
<path d="M89.5152 46.8806C88.8546 46.6478 88.2223 46.2831 87.6472 45.7685C87.7373 46.3358 88.2345 46.8414 88.2345 46.8414C87.1468 48.1479 85.3283 48.6187 85.3283 48.6187C87.682 41.3667 82.0078 40.0911 82.0078 40.0911C85.8236 41.0734 85.8828 46.5886 82.7038 49.9129C86.2694 50.2526 88.4333 48.299 89.5152 46.8806Z" fill="#CCCCC9"/>
<path d="M70.5723 43.3866C70.5941 44.886 71.1621 46.4009 72.3747 47.614C77.511 52.7504 85.6797 46.2124 82.0074 40.0912C83.3389 45.2829 75.6958 52.0036 70.5723 43.3866Z" fill="#CCCCC9"/>
<path d="M38.0542 27.3125C38.0542 25.4934 39.5292 24.019 41.3477 24.019C39.5292 24.019 38.0542 22.5447 38.0542 20.7256C38.0542 22.5447 36.5799 24.019 34.7607 24.019C36.5799 24.019 38.0542 25.4934 38.0542 27.3125Z" fill="black"/>
<path d="M36.4184 58.9824C36.4184 57.813 37.3665 56.8655 38.536 56.8655C37.3665 56.8655 36.4184 55.9173 36.4184 54.7479C36.4184 55.9173 35.4702 56.8655 34.3008 56.8655C35.4702 56.8655 36.4184 57.813 36.4184 58.9824Z" fill="black"/>
<path d="M67.0512 26.4241C67.0512 25.3145 67.9505 24.4152 69.0601 24.4152C67.9505 24.4152 67.0512 23.5159 67.0512 22.4063C67.0512 23.5159 66.1519 24.4152 65.043 24.4152C66.1519 24.4152 67.0512 25.3145 67.0512 26.4241Z" fill="black"/>
<path d="M69.9449 60.8601C69.9449 58.868 71.5595 57.2534 73.551 57.2534C71.5595 57.2534 69.9449 55.6388 69.9449 53.6473C69.9449 55.6388 68.3304 57.2534 66.3389 57.2534C68.3304 57.2534 69.9449 58.868 69.9449 60.8601Z" fill="black"/>
<path d="M80.8829 29.2063C80.8829 28.2581 81.6515 27.4895 82.5997 27.4895C81.6515 27.4895 80.8829 26.7208 80.8829 25.772C80.8829 26.7208 80.1142 27.4895 79.166 27.4895C80.1142 27.4895 80.8829 28.2581 80.8829 29.2063Z" fill="black"/>
<path d="M24.7994 30.2102C24.7994 28.9128 25.8511 27.861 27.1485 27.861C25.8511 27.861 24.7994 26.8093 24.7994 25.5119C24.7994 26.8093 23.7476 27.861 22.4502 27.861C23.7476 27.861 24.7994 28.9128 24.7994 30.2102Z" fill="black"/>
<path d="M66.141 6.75391C66.141 6.04311 66.7174 5.4674 67.4275 5.4674C66.7174 5.4674 66.141 4.89104 66.141 4.18089C66.141 4.89104 65.5653 5.4674 64.8545 5.4674C65.5653 5.4674 66.141 6.04311 66.141 6.75391Z" fill="black"/>
<path d="M39.6068 2.573C39.6068 1.8622 40.1832 1.28649 40.8933 1.28649C40.1832 1.28649 39.6068 0.710143 39.6068 -9.05991e-06C39.6068 0.710143 39.0311 1.28649 38.3203 1.28649C39.0311 1.28649 39.6068 1.8622 39.6068 2.573Z" fill="black"/>
<path d="M38.9636 13.6689C38.9636 12.9588 39.54 12.3824 40.2501 12.3824C39.54 12.3824 38.9636 11.8067 38.9636 11.0959C38.9636 11.8067 38.3879 12.3824 37.6777 12.3824C38.3879 12.3824 38.9636 12.9588 38.9636 13.6689Z" fill="black"/>
</svg>
